<?xml version="1.0" encoding="UTF-8"?>
<svg version="1.1" xmlns="http://www.w3.org/2000/svg" width="1321" height="1221">
<path d="M0 0 C435.93 0 871.86 0 1321 0 C1321 402.93 1321 805.86 1321 1221 C885.07 1221 449.14 1221 0 1221 C0 818.07 0 415.14 0 0 Z " fill="#C7C2EB" transform="translate(0,0)"/>
<path d="M0 0 C435.93 0 871.86 0 1321 0 C1321 402.93 1321 805.86 1321 1221 C885.07 1221 449.14 1221 0 1221 C0 818.07 0 415.14 0 0 Z M396.9375 25.1875 C395.76340576 25.48793213 394.58931152 25.78836426 393.37963867 26.09790039 C382.58715163 28.95031061 372.25239199 32.60089349 362 37 C361.26813477 37.31018066 360.53626953 37.62036133 359.78222656 37.93994141 C335.4115494 48.40903512 313.9710096 63.57904081 295 82 C294.42652832 82.54769043 293.85305664 83.09538086 293.26220703 83.65966797 C253.08941388 122.07866933 228.18006051 176.916309 216.5078125 230.66552734 C215.92194421 233.35883147 215.32013702 236.04840092 214.71875 238.73828125 C214.27003672 240.76284444 213.8221147 242.78758317 213.375 244.8125 C213.16858887 245.74320313 212.96217773 246.67390625 212.74951172 247.6328125 C210.35826819 258.6197121 208.70684084 269.64364382 207.4375 280.8125 C207.31181641 281.87275391 207.18613281 282.93300781 207.05664062 284.02539062 C205.33044058 299.03700467 204.86154842 313.84893001 204.9375 328.9375 C204.94253117 330.6998685 204.94709118 332.46223842 204.95117188 334.22460938 C204.96203533 338.48310866 204.97920829 342.74153809 205 347 C203.88902954 347.42406128 203.88902954 347.42406128 202.75561523 347.85668945 C174.75084567 359.47592715 147.5479683 381.99728708 125 402 C123.58384449 403.22975555 122.16726131 404.45901902 120.75 405.6875 C119.49885565 406.79036982 118.24903937 407.89474678 117 409 C116.27981689 409.63607178 115.55963379 410.27214355 114.81762695 410.92749023 C108.49823792 416.55798395 102.42392462 422.39297392 96.4375 428.375 C95.11588867 429.67824219 95.11588867 429.67824219 93.76757812 431.0078125 C87.7383078 437.02373389 82.31358629 443.35016274 77 450 C76.11333606 451.0511461 75.22150773 452.09800405 74.3203125 453.13671875 C67.55221177 461.00072191 61.72775215 469.36199322 56 478 C55.37351563 478.93457031 54.74703125 479.86914062 54.1015625 480.83203125 C28.37931978 520.13996554 13.50933587 563.58316413 13.6875 610.625 C13.68899048 611.59700348 13.69048096 612.56900696 13.6920166 613.57046509 C13.7306465 627.56991293 14.10027451 641.25542378 17 655 C17.22478027 656.12631836 17.22478027 656.12631836 17.45410156 657.27539062 C25.36634874 696.34946056 44.67037744 732.7519175 69 764 C69.69867188 764.90234375 70.39734375 765.8046875 71.1171875 766.734375 C73.04639685 769.18391052 75.01576076 771.59486153 77 774 C78.1446875 775.423125 78.1446875 775.423125 79.3125 776.875 C86.13732815 785.20062276 93.64426481 792.83262936 101.25 800.4375 C102.02899658 801.21785614 102.02899658 801.21785614 102.82373047 802.01397705 C108.70220436 807.89129157 114.65023129 813.62773121 121 819 C122.05622742 819.91248519 123.11222914 820.82523171 124.16796875 821.73828125 C139.83909645 835.09827239 156.4208547 847.31218 173.5 858.8125 C174.12890137 859.23917969 174.75780273 859.66585937 175.40576172 860.10546875 C178.44027252 862.30053076 178.44027252 862.30053076 182 863 C181.98428955 864.49720581 181.98428955 864.49720581 181.96826172 866.0246582 C181.49148051 916.19200781 183.88736766 966.03894711 200 1014 C200.26780273 1014.81678223 200.53560547 1015.63356445 200.81152344 1016.47509766 C204.81980439 1028.66130071 209.5096938 1040.40729264 215 1052 C215.48919922 1053.03616455 215.48919922 1053.03616455 215.98828125 1054.09326172 C223.24116373 1069.32503732 231.80660237 1083.55501003 242 1097 C242.70286133 1097.9293335 242.70286133 1097.9293335 243.41992188 1098.87744141 C255.90262913 1115.20193804 270.31316853 1129.9662273 287 1142 C288.0415625 1142.763125 289.083125 1143.52625 290.15625 1144.3125 C322.6499452 1167.47632232 359.83893784 1181.22424153 399.453125 1185.70629883 C401.55775259 1185.9490008 403.65780492 1186.23102592 405.75610352 1186.5234375 C410.06356381 1187.06189356 414.31525053 1187.16102041 418.65234375 1187.16796875 C419.86602127 1187.17425293 419.86602127 1187.17425293 421.10421753 1187.18066406 C423.71536175 1187.19040143 426.32634068 1187.19045843 428.9375 1187.1875 C429.83060883 1187.18722809 430.72371765 1187.18695618 431.64389038 1187.18667603 C451.85727126 1187.15836946 471.70231107 1185.98033355 491.62792969 1182.41650391 C494.08428997 1181.98519981 496.54477895 1181.59048436 499.0078125 1181.19921875 C542.79483468 1174.03013101 584.16594635 1157.41111618 624.1796875 1138.76171875 C625.15776367 1138.30587402 626.13583984 1137.8500293 627.14355469 1137.38037109 C629.04930373 1136.45942194 630.93615583 1135.49831314 632.80175781 1134.49853516 C634.11031738 1133.79736572 634.11031738 1133.79736572 635.4453125 1133.08203125 C636.20602051 1132.65768799 636.96672852 1132.23334473 637.75048828 1131.79614258 C640.61666788 1130.78175017 642.11924456 1131.09771814 645 1132 C647.05444336 1133.0246582 647.05444336 1133.0246582 649.08984375 1134.30078125 C649.86231445 1134.77708984 650.63478516 1135.25339844 651.43066406 1135.74414062 C652.25791992 1136.26169922 653.08517578 1136.77925781 653.9375 1137.3125 C664.75738122 1143.93237591 675.77998114 1150.08588577 687 1156 C687.92731934 1156.48968262 688.85463867 1156.97936523 689.81005859 1157.48388672 C720.7590689 1173.69883719 754.48546784 1188.25207167 788.85546875 1195.31640625 C792 1196 792 1196 794.80859375 1196.96875 C801.98567272 1199.28790404 809.56863319 1200.26036344 816.99414062 1201.49755859 C818.88512112 1201.81364354 820.77471492 1202.13826075 822.66210938 1202.47509766 C837.1896017 1205.02044227 851.60302669 1205.2897323 866.3125 1205.3125 C867.24322327 1205.31608521 868.17394653 1205.31967041 869.13287354 1205.32336426 C929.9901179 1205.44941544 987.11609433 1184.61152423 1031 1142 C1031.86020752 1141.17846436 1031.86020752 1141.17846436 1032.73779297 1140.34033203 C1062.82884133 1111.56294471 1083.14966794 1074.17623174 1097.17285156 1035.28320312 C1097.91733774 1033.22817517 1098.68334169 1031.18329694 1099.4609375 1029.140625 C1102.40965808 1021.24162805 1104.53281064 1013.32748521 1106.4675293 1005.13549805 C1107.08440602 1002.66148582 1107.77474879 1000.21238727 1108.46484375 997.7578125 C1110.07122535 991.90706951 1111.29864258 986.01988947 1112.4375 980.0625 C1112.72463867 978.62874023 1112.72463867 978.62874023 1113.01757812 977.16601562 C1113.73337832 973.45265736 1114.37515261 969.7294456 1115 966 C1115.16174713 965.0574939 1115.32349426 964.11498779 1115.49014282 963.1439209 C1117.78103755 949.54006789 1119.25284907 936.21526526 1119.45703125 922.4140625 C1119.52033145 919.78903444 1119.58478742 917.16403401 1119.65039062 914.5390625 C1119.74840584 910.55031248 1119.82285768 906.56951346 1119.77563477 902.58007812 C1119.57088577 880.88405148 1119.57088577 880.88405148 1125.22344971 874.48156738 C1130.73682724 870.04787381 1136.85593182 867.04859589 1143.30844116 864.21893311 C1146.62852063 862.71536026 1149.41432606 860.94003303 1152.390625 858.84375 C1153.21175781 858.28405518 1154.03289062 857.72436035 1154.87890625 857.14770508 C1156.05259766 856.33209106 1156.05259766 856.33209106 1157.25 855.5 C1158.14074219 854.88600342 1159.03148437 854.27200684 1159.94921875 853.6394043 C1174.21993295 843.74731969 1188.00504104 833.52415802 1201 822 C1202.37461834 820.81205822 1203.74955738 819.6244873 1205.125 818.4375 C1206.41955272 817.29492831 1207.71100225 816.14883489 1209 815 C1209.81855469 814.27425781 1210.63710937 813.54851563 1211.48046875 812.80078125 C1224.84101022 800.76707976 1238.0047004 788.2598834 1249 774 C1250.47633621 772.22680624 1251.95560375 770.45604975 1253.4375 768.6875 C1289.27530524 724.72728561 1312.44780454 671.09273993 1312.31567383 613.98291016 C1312.3125115 611.13535284 1312.33608408 608.28883644 1312.36132812 605.44140625 C1312.40126876 593.64041493 1311.29445508 582.56498804 1309 571 C1308.58169258 568.5836168 1308.16475488 566.16699551 1307.75 563.75 C1301.75490771 534.67535551 1288.81066438 505.40606092 1272 481 C1271.17239066 479.76354686 1270.34564027 478.52651855 1269.51953125 477.2890625 C1261.52232163 465.39434244 1252.9995528 454.01526386 1243.265625 443.4765625 C1241.43018894 441.47024101 1239.65653596 439.43436026 1237.88671875 437.37109375 C1233.34272392 432.16476215 1228.45739295 427.3115192 1223.5625 422.4375 C1222.65951172 421.53064453 1221.75652344 420.62378906 1220.82617188 419.68945312 C1215.71302812 414.58371435 1210.50949322 409.67433532 1205 405 C1203.94389682 404.08737102 1202.88790072 403.17461811 1201.83203125 402.26171875 C1186.16090355 388.90172761 1169.5791453 376.68782 1152.5 365.1875 C1151.87109863 364.76082031 1151.24219727 364.33414062 1150.59423828 363.89453125 C1147.55972748 361.69946924 1147.55972748 361.69946924 1144 361 C1144.00785522 359.5308313 1144.00785522 359.5308313 1144.01586914 358.03198242 C1144.32791848 293.53004443 1139.0032109 231.17892878 1111 172 C1110.67531738 171.31212402 1110.35063477 170.62424805 1110.01611328 169.91552734 C1102.7616274 154.6807459 1094.19548015 140.4477368 1084 127 C1083.53142578 126.38044434 1083.06285156 125.76088867 1082.58007812 125.12255859 C1070.09737087 108.79806196 1055.68683147 94.0337727 1039 82 C1037.9584375 81.236875 1036.916875 80.47375 1035.84375 79.6875 C994.07903394 49.9146331 945.09065935 36.78358216 894.1875 36.75 C892.80330368 36.74898788 892.80330368 36.74898788 891.3911438 36.74795532 C866.79947434 36.77632676 842.90791051 38.95122061 818.86865234 44.36035156 C816.11166862 44.97510027 813.3493634 45.55110789 810.58203125 46.1171875 C775.49034567 53.46180953 740.76653659 66.23169325 708.6328125 82.07421875 C707.92887863 82.42037735 707.22494476 82.76653595 706.49967957 83.1231842 C703.03510117 84.83100762 699.58150784 86.55718968 696.14086914 88.31274414 C694.87921904 88.94317143 693.61742589 89.57331254 692.35546875 90.203125 C691.24840576 90.76676758 690.14134277 91.33041016 689.00073242 91.91113281 C685.67316214 93.11859872 684.30299393 93.14553119 681 92 C678.97729492 90.99121094 678.97729492 90.99121094 676.98046875 89.734375 C675.83783569 89.02788818 675.83783569 89.02788818 674.67211914 88.30712891 C673.85219482 87.79327637 673.03227051 87.27942383 672.1875 86.75 C608.1551281 47.58737026 534.31415091 18.50776223 458.39819336 18.68432617 C455.56650512 18.68749552 452.73585825 18.66385109 449.90429688 18.63867188 C431.92462757 18.57493586 414.35194828 20.66097712 396.9375 25.1875 Z " fill="#FEFEFE" transform="translate(0,0)"/>
<path d="M0 0 C1.57157092 78.22393524 -16.4549316 165.13411187 -67 227 C-67.41540039 227.51691406 -67.83080078 228.03382813 -68.25878906 228.56640625 C-78.78876471 241.64253161 -90.57473864 253.87941836 -104 264 C-104.52384277 264.39493652 -105.04768555 264.78987305 -105.58740234 265.19677734 C-125.13619508 279.81989002 -145.97258143 290.02281662 -169 298 C-169.73758545 298.26143799 -170.4751709 298.52287598 -171.23510742 298.79223633 C-176.53130404 300.62750638 -181.8203292 301.95785681 -187.3125 303.0625 C-188.55797607 303.31737183 -188.55797607 303.31737183 -189.82861328 303.57739258 C-223.16403777 310.32809151 -259.67847429 311.09933215 -293 304 C-294.3284564 303.73713353 -295.65742665 303.47685476 -296.98681641 303.21875 C-329.58531068 296.87169953 -360.78753733 286.84153484 -391 273 C-392.55436768 272.2889209 -392.55436768 272.2889209 -394.14013672 271.56347656 C-412.90441746 262.90570856 -431.18952982 253.29422879 -449 242.8125 C-449.62342285 242.45003174 -450.2468457 242.08756348 -450.88916016 241.71411133 C-452.29601917 240.86740963 -453.65502572 239.94191308 -455 239 C-455 238.34 -455 237.68 -455 237 C-454.18402344 236.58492187 -453.36804688 236.16984375 -452.52734375 235.7421875 C-424.25339092 221.13098053 -397.52620984 202.95189189 -372 184 C-371.15743652 183.37689941 -371.15743652 183.37689941 -370.29785156 182.74121094 C-366.84617432 180.18558154 -363.41780279 177.60070513 -360 175 C-359.47599609 174.60216309 -358.95199219 174.20432617 -358.41210938 173.79443359 C-351.72887666 168.71462178 -345.13835468 163.54470783 -338.6640625 158.19921875 C-336.91573288 156.75594958 -335.1607039 155.32074985 -333.3984375 153.89453125 C-322.51865862 145.0847988 -311.9604752 135.89370563 -301.66015625 126.4140625 C-299.50987599 124.46270684 -297.33885452 122.54627986 -295.1484375 120.640625 C-291.21604216 117.20789577 -287.3759091 113.68888373 -283.5625 110.125 C-282.86769531 109.49150635 -282.17289063 108.8580127 -281.45703125 108.20532227 C-277.77629508 104.80552358 -274.42278193 101.3868202 -271.30859375 97.45703125 C-260.34843058 84.11347661 -248.53466609 82.02185964 -232.25193787 79.88882446 C-225.12223357 78.93997774 -218.17687016 77.37728412 -211.1875 75.6875 C-209.97384766 75.3985083 -208.76019531 75.1095166 -207.50976562 74.81176758 C-203.66950923 73.88909228 -199.83370851 72.94942099 -196 72 C-195.303302 71.82770874 -194.606604 71.65541748 -193.88879395 71.47790527 C-136.44424778 57.24365817 -81.00184149 38.38454486 -27.625 12.6875 C-27.02011749 12.39676605 -26.41523499 12.1060321 -25.79202271 11.80648804 C-18.80449225 8.43994575 -11.94476466 4.94554644 -5.22021484 1.07739258 C-3 0 -3 0 0 0 Z " fill="#FEFEFE" transform="translate(1109,885)"/>
<path d="M0 0 C1.71894974 0.00456207 1.71894974 0.00456207 3.47262573 0.00921631 C21.20555789 0.07876025 38.20289699 0.93850023 55.625 4.4375 C56.71248535 4.64117187 57.7999707 4.84484375 58.92041016 5.0546875 C93.49377017 11.5872833 127.14280775 24.1082708 158.85742188 39.13378906 C161.41153423 40.33694361 163.97570272 41.51354457 166.546875 42.6796875 C183.27108595 50.32454307 199.19461325 59.45027918 214.625 69.4375 C213.1642253 73.81982411 209.76152395 74.78174036 205.875 76.8125 C175.93027475 92.98181167 147.43664584 112.50560105 120.625 133.4375 C119.52452707 134.2813707 118.42294826 135.12380105 117.3203125 135.96484375 C110.30487285 141.31753978 103.42955063 146.81851529 96.625 152.4375 C94.85424218 153.87509302 93.08340774 155.31259167 91.3125 156.75 C81.71020629 164.61759769 72.30056334 172.67881814 63.23876953 181.1652832 C60.43999345 183.7836568 57.60282768 186.34385067 54.7109375 188.859375 C50.77479257 192.28818835 46.93672677 195.80894149 43.125 199.375 C42.43196777 200.01034668 41.73893555 200.64569336 41.02490234 201.30029297 C37.42494375 204.63793279 34.07331763 208.00603555 30.9453125 211.79296875 C20.84187939 223.72613616 11.9190419 225.80001555 -3.22705078 227.80029297 C-10.75109188 228.88511418 -18.15801501 230.67469397 -25.57058716 232.33792114 C-28.1643812 232.91834087 -30.76030546 233.48797438 -33.35717773 234.05444336 C-48.75409379 237.42924051 -64.13129639 241.02391368 -79.25 245.5 C-80.69342773 245.92599487 -80.69342773 245.92599487 -82.16601562 246.3605957 C-85.57245865 247.37513014 -88.97424625 248.40405222 -92.375 249.4375 C-93.4022821 249.74911072 -93.4022821 249.74911072 -94.45031738 250.0670166 C-133.61610721 261.96385203 -171.22969697 276.3658232 -208.3125 293.75 C-209.02347839 294.08261841 -209.73445679 294.41523682 -210.46697998 294.75793457 C-218.76238004 298.64812799 -226.90121878 302.706051 -234.90063477 307.17651367 C-237.375 308.4375 -237.375 308.4375 -239.375 308.4375 C-239.61116948 290.66120489 -239.48617462 273.11752473 -237.375 255.4375 C-237.24077637 254.3045752 -237.10655273 253.17165039 -236.96826172 252.00439453 C-234.97275686 235.59617354 -232.28541338 219.49661656 -228.375 203.4375 C-228.11847656 202.36790039 -227.86195313 201.29830078 -227.59765625 200.19628906 C-218.4773334 162.48222674 -204.30394859 125.07559544 -181.375 93.4375 C-180.63894531 92.41011719 -179.90289062 91.38273437 -179.14453125 90.32421875 C-165.54910856 71.77188088 -149.95526438 55.05690269 -131.375 41.4375 C-130.10462891 40.49197266 -130.10462891 40.49197266 -128.80859375 39.52734375 C-107.04657058 23.7884176 -82.33861761 12.81195355 -56.375 6.1875 C-55.46339111 5.95329346 -54.55178223 5.71908691 -53.61254883 5.4777832 C-50.54386716 4.7315496 -47.46959819 4.0682419 -44.375 3.4375 C-43.39910919 3.23784134 -43.39910919 3.23784134 -42.40350342 3.03414917 C-28.28220833 0.23802444 -14.36098191 -0.08077671 0 0 Z " fill="#FEFEFE" transform="translate(456.375,30.5625)"/>
<path d="M0 0 C2.900131 -0.00219651 5.79988647 -0.02045757 8.69995117 -0.03930664 C18.97207403 -0.0710153 28.70901132 0.36996864 38.83862305 2.18530273 C40.92304482 2.49922461 43.00768027 2.81173106 45.0925293 3.12280273 C78.32329199 8.54444378 110.72423712 21.00866577 137.83862305 41.18530273 C138.50087891 41.67546875 139.16313477 42.16563477 139.84545898 42.6706543 C156.47739126 55.16301071 171.81758007 70.17825898 183.83862305 87.18530273 C184.3078418 87.84256348 184.77706055 88.49982422 185.26049805 89.17700195 C204.5869007 116.49461781 218.26501296 146.87806555 226.83862305 179.18530273 C227.00749023 179.820448 227.17635742 180.45559326 227.3503418 181.10998535 C238.02281845 221.57231114 240.86739117 262.47112923 239.83862305 304.18530273 C234.38710794 301.21498077 228.93772517 298.24108872 223.4987793 295.24780273 C189.26747431 276.47283953 154.49189893 260.58553121 117.83862305 247.18530273 C116.58390029 246.72502365 115.32918027 246.26473711 114.07446289 245.80444336 C110.35377664 244.44178443 106.62818896 243.09292241 102.90112305 241.74780273 C101.79494629 241.3466626 100.68876953 240.94552246 99.54907227 240.53222656 C91.73079018 237.74200419 83.8328015 235.41371976 75.83862305 233.18530273 C73.88958104 232.61884803 71.94159589 232.04873955 69.99487305 231.47436523 C63.94787196 229.69366297 57.89487406 227.9342767 51.83862305 226.18530273 C50.9573877 225.92990723 50.07615234 225.67451172 49.16821289 225.41137695 C37.68536364 222.10688039 26.11601392 219.25805617 14.47091675 216.59246826 C12.16281232 216.06298428 9.85631666 215.52685093 7.54980469 214.99047852 C1.32851882 213.55700522 -4.83714441 212.14756642 -11.1730957 211.31420898 C-21.10809266 209.96717177 -26.16212533 207.55413729 -32.38110352 199.51782227 C-33.41896962 198.13014706 -34.45255035 196.7392581 -35.48217773 195.34545898 C-38.48295281 191.4852005 -41.89855335 188.01686599 -45.28637695 184.49780273 C-46.54032601 183.1826775 -47.79293244 181.86627078 -49.04418945 180.54858398 C-49.69508545 179.8638501 -50.34598145 179.17911621 -51.01660156 178.47363281 C-53.47374979 175.85202207 -55.88410842 173.19044786 -58.2980957 170.52905273 C-64.04987018 164.2171561 -70.03892922 158.15546767 -76.08740234 152.12890625 C-77.86128699 150.36043054 -79.62969472 148.5866023 -81.39770508 146.81225586 C-86.60529327 141.60161875 -91.81317818 136.45892614 -97.42382812 131.67773438 C-100.36384811 129.152465 -103.15516742 126.4691403 -105.97387695 123.81030273 C-110.92098406 119.18059706 -115.97685367 114.78215469 -121.27075195 110.54858398 C-124.05717183 108.27049747 -126.75884951 105.9207456 -129.45703125 103.54003906 C-137.10930386 96.79628249 -145.06433883 90.62324405 -153.27856445 84.58325195 C-156.14845673 82.45241648 -158.96566203 80.255536 -161.78637695 78.06030273 C-169.65042871 71.99236157 -177.70362323 66.18711875 -185.93481445 60.62670898 C-186.84166992 60.01098022 -186.84166992 60.01098022 -187.7668457 59.3828125 C-189.4435521 58.24812088 -191.12651047 57.12268368 -192.80981445 55.99780273 C-193.58583008 55.39967773 -194.3618457 54.80155273 -195.16137695 54.18530273 C-195.16137695 53.52530273 -195.16137695 52.86530273 -195.16137695 52.18530273 C-133.89330003 21.50707753 -69.12615002 -0.00584774 0 0 Z " fill="#FEFEFE" transform="translate(892.161376953125,48.814697265625)"/>
<path d="M0 0 C5.47427156 2.98325606 10.9466279 5.96976286 16.41015625 8.97265625 C66.12567582 36.21025097 118.44103335 58.44112456 173 74 C173.8259668 74.23847656 174.65193359 74.47695313 175.50292969 74.72265625 C192.78519075 79.68562804 210.29628476 83.79050956 227.77685547 87.98535156 C231.40615081 88.85638244 235.0334714 89.73534299 238.66015625 90.6171875 C239.59980225 90.8438208 240.53944824 91.0704541 241.50756836 91.30395508 C243.21427344 91.71706017 244.91960403 92.13589864 246.62329102 92.5612793 C250.80634035 93.58384156 254.6894314 94.12466953 259 94.375 C266.49136751 95.64711901 270.80611479 103.27472031 275.23925781 108.85498047 C278.19732614 112.45863942 281.40929173 115.8145464 284.625 119.1875 C285.78461467 120.40943498 286.94346573 121.63209507 288.1015625 122.85546875 C289.0131311 123.81779419 289.0131311 123.81779419 289.94311523 124.79956055 C291.9206327 126.91509348 293.87080757 129.05385268 295.81703186 131.19815063 C301.59740955 137.55737652 307.5553791 143.71089898 313.64428711 149.7746582 C315.20089389 151.32584727 316.75200171 152.88239392 318.30273438 154.43945312 C323.16788375 159.30749814 328.06509717 164.08931147 333.32348633 168.5378418 C335.13425542 170.1170898 336.8181199 171.78483269 338.5 173.5 C341.48872337 176.53594925 344.61706479 179.34508659 347.84375 182.125 C350.19962958 184.17359094 352.5050746 186.27203002 354.8125 188.375 C359.13125657 192.27241447 363.57762051 195.97300355 368.1015625 199.62890625 C370.62928052 201.69672948 373.11390685 203.80621099 375.58789062 205.93774414 C382.79878934 212.13502293 390.31729948 217.84331973 397.96484375 223.48828125 C399.95645246 224.96765279 401.93348502 226.46436785 403.90625 227.96875 C412.10608873 234.20760166 420.45497059 240.13748466 429.05786133 245.81225586 C430.22031372 246.5896814 430.22031372 246.5896814 431.40625 247.3828125 C432.10041016 247.84059082 432.79457031 248.29836914 433.50976562 248.77001953 C434.00154297 249.17591309 434.49332031 249.58180664 435 250 C435 250.66 435 251.32 435 252 C389.79466098 274.64187137 342.60010425 291.80103149 292.625 300.25 C291.86394958 300.38073914 291.10289917 300.51147827 290.31878662 300.6461792 C227.25898954 311.40966719 158.59956848 302.57798786 105.23193359 265.61669922 C98.53519077 260.7659192 92.2363425 255.42246163 86 250 C85.29270752 249.392771 84.58541504 248.78554199 83.85668945 248.15991211 C83.15374756 247.55284424 82.45080566 246.94577637 81.7265625 246.3203125 C80.77837646 245.50264404 80.77837646 245.50264404 79.81103516 244.66845703 C77.27348206 242.33067895 75.05723039 239.772689 72.83203125 237.140625 C70.86640049 234.84389652 68.81113937 232.64874011 66.75 230.4375 C51.86041455 213.83473044 40.30784172 194.19704553 31 174 C30.64341309 173.23171875 30.28682617 172.4634375 29.91943359 171.671875 C23.4049001 157.48504524 18.41665922 142.96266276 14 128 C13.75266113 127.16791016 13.50532227 126.33582031 13.25048828 125.47851562 C7.4157673 105.53801308 3.58069419 84.7177297 2 64 C1.91121582 62.8538623 1.82243164 61.70772461 1.73095703 60.52685547 C0.2214797 40.32836871 -0.27680742 20.25165694 0 0 Z " fill="#FEFEFE" transform="translate(194,871)"/>
<path d="M0 0 C4.61675424 1.57709735 8.28586878 4.04428735 12.25 6.8125 C13.28966919 7.53348877 13.28966919 7.53348877 14.3503418 8.26904297 C29.00845446 18.52988622 43.21020694 29.58971633 56.41796875 41.6640625 C57.82446183 42.93650254 59.23708262 44.2027703 60.6784668 45.43554688 C66.34459804 50.29160918 71.66194529 55.47578208 76.93579102 60.75048828 C78.42641615 62.23893237 79.92487017 63.71917277 81.42382812 65.19921875 C87.7335769 71.47221713 93.46618861 78.02105315 99 85 C100.01184816 86.22058874 101.02697913 87.43847144 102.046875 88.65234375 C125.63390962 117.13166204 144.38064187 151.93784245 153 188 C153.27714844 189.15113281 153.55429688 190.30226563 153.83984375 191.48828125 C157.17122702 206.12316395 158.33467959 220.40635283 158.26074219 235.36303711 C158.25002412 237.93171862 158.26070803 240.49969887 158.2734375 243.06835938 C158.28561826 256.82759362 157.39200462 270.49688857 154.25 283.9375 C153.99621582 285.04170288 153.99621582 285.04170288 153.73730469 286.16821289 C143.77928517 327.83536115 121.21093482 367.18501152 92.265625 398.5234375 C91.01332317 399.89233295 89.76921271 401.2694282 88.56225586 402.6784668 C83.79508043 408.24264884 78.70183423 413.45136492 73.51196289 418.6184082 C72.06475615 420.06025221 70.62297974 421.50737116 69.18164062 422.95507812 C63.95979641 428.18100488 58.65287345 433.24101622 53 438 C52.15695312 438.71285156 51.31390625 439.42570312 50.4453125 440.16015625 C48.19689076 442.00355926 45.93901565 443.8345686 43.67138672 445.65429688 C42.52083297 446.58065566 41.37423515 447.51194232 40.23095703 448.44726562 C30.11760078 456.70156832 19.54862406 464.15095858 8.6875 471.375 C7.74080948 472.00530624 7.74080948 472.00530624 6.7749939 472.64834595 C0.14205197 477.0546046 -6.5359167 481.38776453 -13.29296875 485.6015625 C-14.34379639 486.25721191 -15.39462402 486.91286133 -16.47729492 487.58837891 C-19 489 -19 489 -21 489 C-21.03440186 488.08452393 -21.06880371 487.16904785 -21.10424805 486.22583008 C-23.11436349 435.72362744 -30.00483518 386.29150747 -41 337 C-41.26312988 335.80068848 -41.52625977 334.60137695 -41.79736328 333.36572266 C-44.60772997 320.56650981 -47.73525621 307.97313204 -51.6328125 295.4609375 C-53.23500265 290.30711596 -54.57127993 285.10129874 -55.91796875 279.875 C-56.71707164 276.90130209 -57.64345236 273.9848729 -58.61328125 271.0625 C-58.89365234 270.21244385 -59.17402344 269.3623877 -59.46289062 268.48657227 C-60.016096 266.82679716 -60.58065039 265.1707478 -61.15820312 263.51928711 C-61.41150391 262.7588208 -61.66480469 261.99835449 -61.92578125 261.21484375 C-62.15692627 260.54573975 -62.38807129 259.87663574 -62.6262207 259.18725586 C-63.4953666 254.10124795 -61.58912979 249.58307995 -59.65625 244.953125 C-59.1600415 243.74027832 -58.66383301 242.52743164 -58.15258789 241.27783203 C-57.88431183 240.62542542 -57.61603577 239.9730188 -57.33963013 239.30084229 C-50.98486221 223.77897577 -45.43342314 208.01073765 -40.0625 192.125 C-39.52544434 190.53975525 -39.52544434 190.53975525 -38.97753906 188.92248535 C-36.62190272 181.95805407 -34.29856193 174.9834644 -32 168 C-31.58329544 166.74011261 -31.58329544 166.74011261 -31.15817261 165.45477295 C-27.02110268 152.89424753 -23.60043295 140.21292572 -20.4375 127.375 C-20.078909 125.92850571 -20.078909 125.92850571 -19.71307373 124.45278931 C-14.09882752 101.77341863 -9.72282288 79.05561588 -6.11328125 55.9765625 C-5.44332957 51.69855433 -4.72400513 47.43871018 -3.921875 43.18359375 C-3.01543852 38.28315747 -2.40559183 33.39745362 -1.9375 28.4375 C-1.85516113 27.59413086 -1.77282227 26.75076172 -1.68798828 25.88183594 C-0.87733723 17.26806652 -0.39658906 8.64146684 0 0 Z " fill="#FEFEFE" transform="translate(1142,374)"/>
<path d="M0 0 C0.03867187 1.94132812 0.03867187 1.94132812 0.078125 3.921875 C0.96112921 36.8167253 4.53972246 69.56857522 10 102 C10.33304853 104.06363816 10.6651453 106.12743025 10.99609375 108.19140625 C13.20613489 121.70547056 16.09799475 135.04601485 19.17041016 148.38769531 C20.03430349 152.14936857 20.8827218 155.91434527 21.73046875 159.6796875 C24.7982341 173.19296886 28.158823 186.49567064 32.3046875 199.71630859 C33.7265705 204.38635551 34.96453395 209.10907534 36.23339844 213.82250977 C37.62019171 218.88180033 39.30498628 223.72483483 41.3984375 228.54296875 C43.21987366 235.982471 39.1042205 243.00709454 36.25 249.6875 C11.94601665 308.13920272 -8.93065704 372.62015152 -15.40527344 435.81298828 C-15.70320868 438.71313349 -16.07338124 441.22014373 -17 444 C-17.27418831 446.02034436 -17.50793156 448.04628233 -17.71875 450.07421875 C-17.84596436 451.29278564 -17.97317871 452.51135254 -18.10424805 453.7668457 C-18.23484619 455.06066162 -18.36544434 456.35447754 -18.5 457.6875 C-18.6338208 458.99485107 -18.7676416 460.30220215 -18.90551758 461.64916992 C-19.8201788 470.75906009 -20.58228461 479.85347333 -21 489 C-25.61663088 487.4229448 -29.28613099 484.95592418 -33.25 482.1875 C-33.94746338 481.70321533 -34.64492676 481.21893066 -35.36352539 480.7199707 C-64.73821508 460.13899881 -94.96011787 435.94775918 -117.05859375 407.4921875 C-119.15480019 404.80128266 -121.38464947 402.25934955 -123.625 399.6875 C-148.11453308 370.27717289 -166.25978071 334.23300246 -175 297 C-175.17241211 296.2790918 -175.34482422 295.55818359 -175.52246094 294.81542969 C-179.56833524 277.37578482 -180.57029094 259.84297763 -180 242 C-179.9690625 240.77539062 -179.938125 239.55078125 -179.90625 238.2890625 C-178.56614229 210.61583834 -170.67997777 183.96044918 -159 159 C-158.66887207 158.28408691 -158.33774414 157.56817383 -157.99658203 156.83056641 C-142.1954077 122.95715003 -118.42708546 94.41789318 -92.25 68.125 C-91.36248047 67.23272705 -90.47496094 66.3404541 -89.56054688 65.42114258 C-84.53439473 60.407697 -79.42136674 55.58292505 -74 51 C-73.3704541 50.46375 -72.7409082 49.9275 -72.09228516 49.375 C-57.43990066 36.97196659 -42.1463227 25.39378668 -26 15 C-24.83705745 14.2437696 -23.67430646 13.48724455 -22.51171875 12.73046875 C-2.89656609 0 -2.89656609 0 0 0 Z " fill="#FEFEFE" transform="translate(205,361)"/>
<path d="M0 0 C0.21188965 0.99805664 0.4237793 1.99611328 0.64208984 3.02441406 C3.17838963 14.57060359 6.72036396 25.60274456 10.625 36.75 C11.25816712 38.57712886 11.89056125 40.40452576 12.5222168 42.23217773 C13.77447941 45.85204911 15.03100183 49.4703921 16.29150391 53.08740234 C17.72227238 57.19565188 19.13757288 61.30878449 20.54296875 65.42578125 C25.95792905 81.27669982 31.55603771 97.06107027 37.16177368 112.84524536 C42.31608014 127.36213104 47.41225479 141.89777498 52.44729614 156.45645142 C58.2708954 173.29348221 64.10953488 190.12536631 70.02416992 206.93066406 C70.74491793 208.98117537 71.46358625 211.03241915 72.17993164 213.08447266 C78.29812029 230.60122996 85.20169258 246.50317358 94 263 C66.94 263 39.88 263 12 263 C12.33 261.02 12.66 259.04 13 257 C14.25581828 239.77734926 10.67338872 223.27242883 4.69921875 207.14453125 C4 205 4 205 4 202 C-23.72 202.33 -51.44 202.66 -80 203 C-83.77567454 214.9563027 -87.0616658 225.79825591 -89 238 C-89.18691406 239.01578125 -89.37382813 240.0315625 -89.56640625 241.078125 C-90.01100237 244.0741421 -90.13295609 246.91020679 -90.125 249.9375 C-90.12757813 250.91589844 -90.13015625 251.89429688 -90.1328125 252.90234375 C-89.98772763 256.28623499 -89.47899414 259.64704099 -89 263 C-113.09 263 -137.18 263 -162 263 C-159.36 257.72 -156.72 252.44 -154 247 C-152.65757621 244.0911898 -151.34950793 241.2140895 -150.12109375 238.26171875 C-149.63798988 237.10575447 -149.63798988 237.10575447 -149.14512634 235.92643738 C-144.55040396 224.7083994 -140.68546463 213.21173636 -136.73387909 201.75592804 C-135.58550708 198.43175785 -134.42961383 195.11020656 -133.27392578 191.78857422 C-132.80327872 190.43567067 -132.33263664 189.0827654 -131.86199951 187.7298584 C-131.62881767 187.05959122 -131.39563583 186.38932404 -131.15538788 185.69874573 C-130.44993181 183.67001936 -129.74527374 181.64101743 -129.04083252 179.61193848 C-124.86895915 167.59847351 -120.63327455 155.60808544 -116.375 143.625 C-112.01920401 131.36501467 -107.67867423 119.1002784 -103.390625 106.81640625 C-82.00835495 45.61279294 -82.00835495 45.61279294 -70.82836914 17.31622314 C-69.94915419 15.0285312 -69.94915419 15.0285312 -69.52124023 12.67156982 C-68.97189425 10.31861714 -68.54500681 8.86764096 -67 7 C-63.07378492 5.57319069 -59.14493075 5.30939525 -55 5 C-53.11362161 4.7759444 -51.22776758 4.54741923 -49.3425293 4.31396484 C-47.42017571 4.10900989 -45.49738564 3.90811496 -43.57421875 3.7109375 C-42.54238968 3.60278717 -41.51056061 3.49463684 -40.44746399 3.38320923 C-38.28897682 3.15795144 -36.13029743 2.93452838 -33.97143555 2.71289062 C-30.67762558 2.373984 -27.38470759 2.02721134 -24.09179688 1.6796875 C-21.98181953 1.46046829 -19.87179503 1.24170235 -17.76171875 1.0234375 C-16.78555099 0.92034271 -15.80938324 0.81724792 -14.80363464 0.71102905 C-9.83821883 0.20654231 -4.99087041 -0.11290977 0 0 Z " fill="#1901AD" transform="translate(759,438)"/>
<path d="M0 0 C0.66 0 1.32 0 2 0 C2.58394531 1.71316406 2.58394531 1.71316406 3.1796875 3.4609375 C22.90083133 60.84084973 47.89734692 117.73736197 78.40380859 170.2265625 C80.73750537 174.28144095 83.00208771 178.37389348 85.2722168 182.46459961 C96.40755379 202.51063583 108.34756092 221.87837597 121 241 C121.73851195 242.12029066 122.47678766 243.24073709 123.21484375 244.36132812 C132.50664412 258.46366192 141.92421345 272.44073864 152 286 C152.74491699 287.00498535 152.74491699 287.00498535 153.50488281 288.03027344 C156.97686122 292.70695391 160.48109533 297.3585614 164 302 C164.54188965 302.71607422 165.0837793 303.43214844 165.64208984 304.16992188 C171.64870861 312.09970479 177.7064072 319.95708544 184.0546875 327.6171875 C186.81384063 330.99687306 189.42643409 334.47774705 192 338 C188.86508732 338.9974067 186.80164152 338.96182651 183.61230469 338.21484375 C182.7481897 338.01685181 181.88407471 337.81885986 180.99377441 337.61486816 C180.06254761 337.39133667 179.1313208 337.16780518 178.171875 336.9375 C177.19939819 336.71106812 176.22692139 336.48463623 175.22497559 336.25134277 C172.06406871 335.51139549 168.90691099 334.75680107 165.75 334 C164.67423706 333.74468506 163.59847412 333.48937012 162.4901123 333.22631836 C148.25314694 329.84581766 134.08203278 326.39435161 120.12402344 321.98242188 C117.09410067 321.02959215 114.05790768 320.10035779 111.01925659 319.17588806 C62.73632516 304.46927598 15.82687559 285.86107689 -28.6171875 261.81347656 C-30.93936673 260.56859006 -33.26364573 259.34564485 -35.609375 258.14746094 C-39.17057527 256.32647888 -42.67757073 254.4179804 -46.1875 252.5 C-47.81981567 251.68426514 -47.81981567 251.68426514 -49.48510742 250.85205078 C-52.53638843 249.1245915 -54.73588001 247.68115675 -57 245 C-58.16052452 240.21739877 -57.59567955 235.84610446 -57 231 C-56.88161324 229.64082225 -56.7695052 228.28108461 -56.66333008 226.92089844 C-56.29846264 222.47865907 -55.81419322 218.05359657 -55.3125 213.625 C-55.22385681 212.82586182 -55.13521362 212.02672363 -55.04388428 211.20336914 C-49.59096038 162.25662609 -38.5496383 114.76820434 -24.3125 67.6875 C-24.02721436 66.73939453 -23.74192871 65.79128906 -23.44799805 64.81445312 C-23.1725415 63.91017578 -22.89708496 63.00589844 -22.61328125 62.07421875 C-22.37391846 61.28619873 -22.13455566 60.49817871 -21.88793945 59.6862793 C-20.92875966 56.78447692 -19.86113058 53.93663754 -18.77888489 51.07896423 C-17.56542653 47.8400562 -16.43019961 44.57487939 -15.29296875 41.30859375 C-14.78334898 39.85346454 -14.27357836 38.39838814 -13.76367188 36.94335938 C-12.97918116 34.70227008 -12.19563762 32.460869 -11.41479492 30.21850586 C-7.86588031 20.0341246 -4.09471929 9.97796813 0 0 Z " fill="#FEFDFE" transform="translate(252,613)"/>
<path d="M0 0 C6.10302138 0.65616299 11.96358193 1.79088675 17.9375 3.1875 C18.8869751 3.40744629 19.8364502 3.62739258 20.81469727 3.85400391 C22.83919453 4.32455649 24.86319139 4.79726651 26.88671875 5.27197266 C29.98493351 5.99647677 33.08601345 6.70761882 36.1875 7.41796875 C49.09388367 10.40508877 61.78149167 13.82057765 74.40039062 17.85107422 C77.05102131 18.69710433 79.7031486 19.53714146 82.35742188 20.37158203 C121.91944777 32.82375966 161.11743806 46.85422065 198 66 C199.21969845 66.60491251 200.4410973 67.206407 201.6640625 67.8046875 C209.97764983 71.87656145 218.16152255 76.17433156 226.3125 80.5625 C227.3025 81.09254639 228.2925 81.62259277 229.3125 82.16870117 C231.25164935 83.21934342 233.18175997 84.2868551 235.10205078 85.37158203 C237.09798662 86.49313991 239.11946658 87.57002664 241.15966797 88.60888672 C248.45958051 92.61592305 248.45958051 92.61592305 249.84887695 96.17407227 C250.05563297 98.88182879 249.84799791 101.30620406 249.5 104 C249.41194092 105.02053467 249.32388184 106.04106934 249.2331543 107.0925293 C248.89078344 110.73873913 248.44863672 114.36536624 248 118 C247.83490852 119.45633525 247.67173285 120.91288867 247.51025391 122.36962891 C243.33125508 159.82383127 237.51045819 197.48793754 226.94970703 233.72241211 C226.12975685 236.55218876 225.35129465 239.38745577 224.59375 242.234375 C215.76832725 274.7603282 204.91608808 306.87555851 192 338 C191.34 338 190.68 338 190 338 C189.74532959 337.28497314 189.49065918 336.56994629 189.22827148 335.83325195 C168.40583106 277.6268402 143.83030578 219.90702904 112.47558594 166.53662109 C110.33552263 162.85772338 108.27012503 159.13813695 106.19628906 155.42163086 C87.77249042 122.47518759 67.26210545 90.70988234 45.046875 60.19921875 C43.16289849 57.61080395 41.2947568 55.01323828 39.453125 52.39453125 C30.76630828 40.04640171 21.41259298 28.21576779 11.953125 16.453125 C9.44326843 13.30074515 6.96620633 10.12409817 4.5 6.9375 C4.05366211 6.36410889 3.60732422 5.79071777 3.14746094 5.19995117 C0 1.11704305 0 1.11704305 0 0 Z " fill="#FEFEFE" transform="translate(882,272)"/>
<path d="M0 0 C-1.41738489 3.25207092 -3.12526412 5.31361067 -5.6875 7.75 C-8.99922308 10.97848408 -12.08073154 14.30644216 -15.09375 17.8125 C-17.30945648 20.35511399 -19.59098592 22.83110198 -21.875 25.3125 C-26.02245258 29.85524685 -29.93232695 34.54119962 -33.79296875 39.328125 C-35.91623338 41.8985905 -38.11811849 44.35919363 -40.375 46.8125 C-44.88891486 51.77233019 -48.99759657 56.9906763 -53.10546875 62.28515625 C-55.56643678 65.45645487 -58.0699817 68.5910441 -60.58813477 71.71704102 C-65.75353117 78.12968167 -70.80660472 84.60673089 -75.6953125 91.234375 C-77.2185277 93.2957321 -78.75012241 95.35076365 -80.28125 97.40625 C-87.1839531 106.69538948 -93.91767422 116.07058116 -100.40673828 125.65283203 C-102.24149932 128.35577299 -104.08737899 131.05096364 -105.93359375 133.74609375 C-121.1176639 155.93940248 -135.63776453 178.33347055 -149.05761719 201.63085938 C-150.80381757 204.65971373 -152.56017286 207.68235936 -154.3203125 210.703125 C-161.10242754 222.39350675 -167.41498565 234.29507895 -173.60351562 246.30859375 C-174.87950428 248.76777189 -176.17504617 251.21469963 -177.484375 253.65625 C-182.66429182 263.32472547 -187.54769912 273.121678 -192.3125 283 C-192.7578006 283.92259613 -192.7578006 283.92259613 -193.21209717 284.86383057 C-196.90788123 292.53171659 -200.51599487 300.23355126 -204 308 C-210.94806567 297.57790149 -213.18278942 282.46072307 -216.3125 270.4375 C-216.54955658 269.53015106 -216.78661316 268.62280212 -217.03085327 267.68795776 C-222.0027635 248.58491753 -226.26194473 229.37997982 -230 210 C-230.2094928 208.92477081 -230.2094928 208.92477081 -230.42321777 207.82781982 C-234.0936768 188.95756418 -236.73263894 170.04813526 -238.8125 150.9375 C-238.91791107 149.97271729 -239.02332214 149.00793457 -239.13192749 148.01391602 C-240.99080023 130.79325712 -242.19021328 113.70470978 -242.0625 96.375 C-242.05798828 95.1684375 -242.05347656 93.961875 -242.04882812 92.71875 C-242.03729516 89.81244186 -242.02103166 86.90625211 -242 84 C-172.19121961 45.24145562 -97.57809921 20.79202335 -20 3 C-19.2967157 2.837276 -18.5934314 2.674552 -17.86883545 2.50689697 C-15.95460378 2.06623591 -14.03790971 1.63631162 -12.12109375 1.20703125 C-11.07236084 0.97089111 -10.02362793 0.73475098 -8.94311523 0.49145508 C-5.90794874 -0.01537115 -3.07133007 -0.08852169 0 0 Z " fill="#FEFEFE" transform="translate(459,269)"/>
<path d="M0 0 C2.79312014 2.79312014 3.41905781 6.04558393 4.5 9.75 C4.87705078 11.02798462 4.87705078 11.02798462 5.26171875 12.33178711 C15.07356504 46.14638062 23.20225102 80.26352983 29 115 C29.26659424 116.58167969 29.26659424 116.58167969 29.53857422 118.1953125 C35.42072275 153.45506485 38.26440129 188.25701332 38 224 C-2.67018346 246.91797637 -45.52446739 264.2903133 -89.68783569 279.21685791 C-92.01151254 280.00389936 -94.33256855 280.79835377 -96.65356445 281.59326172 C-106.0872542 284.80503634 -115.5350418 287.63106343 -125.1875 290.125 C-127.02344727 290.60646484 -127.02344727 290.60646484 -128.89648438 291.09765625 C-131.3559615 291.74263761 -133.81599965 292.38548364 -136.27661133 293.02612305 C-140.13315508 294.03482759 -143.985072 295.05973935 -147.8359375 296.08984375 C-161.14035388 299.6425264 -174.46215701 302.96479179 -187.9375 305.8125 C-189.47458618 306.14109009 -189.47458618 306.14109009 -191.04272461 306.47631836 C-192.48917358 306.77614624 -192.48917358 306.77614624 -193.96484375 307.08203125 C-194.8168335 307.25968018 -195.66882324 307.4373291 -196.54663086 307.62036133 C-199.07034394 308.01088515 -201.45046243 308.06693569 -204 308 C-202.5158627 304.51345524 -200.53785948 302.35808928 -197.8125 299.75 C-194.30226401 296.31814248 -190.99929486 292.8105258 -187.8046875 289.0859375 C-185.78348724 286.74974499 -183.70621161 284.47035149 -181.625 282.1875 C-177.76977614 277.91689849 -174.12417485 273.51226331 -170.5078125 269.0390625 C-167.61167573 265.52941389 -164.62304174 262.10995408 -161.625 258.6875 C-156.01360998 252.25756255 -150.6824081 245.65817597 -145.47167969 238.90136719 C-143.8889101 236.85647509 -142.29320476 234.8221568 -140.6953125 232.7890625 C-89.29290335 167.280439 -44.37296686 95.33534018 -3.13476562 6.46899414 C-2.13246407 4.28821196 -1.08835329 2.13886441 0 0 Z " fill="#FEFEFE" transform="translate(1071,647)"/>
<path d="M0 0 C7.4053329 0.77040618 14.75810634 1.80168445 22.125 2.875 C25.91530527 3.41790715 29.7059287 3.95855249 33.49658203 4.49902344 C35.61509056 4.80196278 37.733337 5.10675397 39.85107422 5.41503906 C52.53313104 7.25176728 65.25972402 8.58370181 78.0138855 9.80126953 C79.77540052 9.96945014 81.53674847 10.13939477 83.29788208 10.31152344 C114.63663693 13.35350571 145.85212459 14.3345968 177.32250977 14.26074219 C182.19440751 14.24938862 187.0660857 14.25612086 191.93797588 14.26761055 C226.50816563 14.3368876 260.911386 13.19525647 295.3125 9.625 C297.48395482 9.40717555 299.65542314 9.18948564 301.8269043 8.97192383 C315.38539235 7.5914031 328.85346774 5.92672341 342.30078125 3.69921875 C345.90615838 3.11420062 349.33660335 2.83431874 353 3 C347.26299982 9.85641485 341.19677732 16.02980789 334.421875 21.859375 C331.90403253 24.08482286 329.45299224 26.37025401 327.00341797 28.67016602 C321.37528319 33.95401452 315.66388093 39.00541817 309.6328125 43.83203125 C306.89030846 46.09032463 304.2906241 48.45781334 301.6875 50.875 C295.99143662 56.1105306 289.96768525 60.82310507 283.85449219 65.55273438 C281.31032385 67.53823068 278.79756872 69.56159162 276.28466797 71.58642578 C247.84983167 94.49569941 217.2593657 115.05750509 185.70605469 133.41943359 C183.14894351 134.91300431 180.60846806 136.43154266 178.0703125 137.95703125 C176.63094652 138.80594038 175.19089918 139.65369587 173.75 140.5 C173.12432129 140.88051514 172.49864258 141.26103027 171.85400391 141.65307617 C169.38360817 143.07357101 167.4635102 143.99098521 164.58984375 144.046875 C160.64922552 142.45398558 157.30494538 140.15228089 153.8125 137.75 C153.02584961 137.21640869 152.23919922 136.68281738 151.42871094 136.13305664 C137.91179568 126.90903843 124.74956216 117.2571402 112 107 C111.36884277 106.49500977 110.73768555 105.99001953 110.08740234 105.46972656 C96.96177763 94.96017241 84.20068935 84.07574936 71.87890625 72.6328125 C69.63612155 70.58174481 67.3733822 68.56993813 65.08203125 66.57421875 C53.40692153 56.38922714 42.40009745 45.50186429 31.4375 34.5625 C30.87315247 34.00074066 30.30880493 33.43898132 29.72735596 32.86019897 C24.1577782 27.31077809 18.63544759 21.76067611 13.52709961 15.77661133 C10.44163402 12.18701371 7.16442755 8.76753135 3.92382812 5.31835938 C0 1.10681692 0 1.10681692 0 0 Z " fill="#FEFEFE" transform="translate(477,971)"/>
<path d="M0 0 C2.3195353 1.35185868 4.48775219 2.72596869 6.6875 4.25 C7.65502197 4.90838867 7.65502197 4.90838867 8.64208984 5.58007812 C21.39121793 14.31643561 33.82865347 23.47788935 46 33 C47.15083467 33.89219415 48.30188232 34.78411363 49.453125 35.67578125 C56.90799387 41.46863836 64.18414559 47.43816956 71.34814453 53.58642578 C73.03747178 55.03206645 74.73468721 56.46797781 76.43359375 57.90234375 C83.12136902 63.56611766 89.65148295 69.36265864 96.03100586 75.37255859 C98.87381708 78.04759031 101.75060936 80.65952972 104.71118164 83.20410156 C108.96756324 86.92118345 112.98390478 90.83922653 116.97265625 94.83984375 C117.69940048 95.56563126 118.42614471 96.29141876 119.1749115 97.03919983 C120.69962296 98.56323556 122.2230915 100.08851569 123.74536133 101.61499023 C126.05633891 103.93132463 128.37260771 106.24227078 130.68945312 108.55273438 C132.1800082 110.04395034 133.670253 111.53547653 135.16015625 113.02734375 C135.84263931 113.70780258 136.52512238 114.38826141 137.22828674 115.08934021 C141.11540285 118.99518133 144.82914421 123.0004884 148.42126465 127.17971802 C151.53737577 130.77259439 154.82006747 134.21596573 158.07617188 137.68164062 C162 141.89318308 162 141.89318308 162 143 C155.1553523 142.54473674 148.4015839 141.65920651 141.625 140.625 C140.76430908 140.49375732 139.90361816 140.36251465 139.0168457 140.22729492 C137.23171411 139.95430947 135.44663985 139.68094885 133.66162109 139.40722656 C109.74328785 135.74773474 85.81986461 133.1040658 61.6875 131.375 C60.82283112 131.31256104 59.95816223 131.25012207 59.06729126 131.18579102 C38.58953512 129.72095776 18.14825304 128.838545 -2.3828125 128.796875 C-3.35581173 128.79404762 -4.32881096 128.79122025 -5.33129501 128.78830719 C-10.49788411 128.77346727 -15.66444647 128.76414679 -20.83105469 128.75976562 C-24.98772145 128.75542093 -29.14417596 128.74166321 -33.30078125 128.71875 C-80.60862035 128.46343046 -127.4644319 131.54673711 -174.2890625 138.37451172 C-175.03224228 138.48192184 -175.77542206 138.58933197 -176.54112244 138.69999695 C-178.56246498 138.99302643 -180.58313741 139.29066794 -182.60375977 139.58862305 C-185.45432695 139.93390417 -188.13540071 140.08659859 -191 140 C-186.7689643 134.8926756 -182.31265119 130.30269278 -177.4375 125.8125 C-176.73858643 125.16394043 -176.03967285 124.51538086 -175.31958008 123.84716797 C-173.89485223 122.52593007 -172.46867689 121.20625124 -171.04101562 119.88818359 C-169.17110421 118.15829186 -167.31026579 116.41935967 -165.453125 114.67578125 C-159.6975327 109.28834327 -153.83569469 104.15259676 -147.68359375 99.21484375 C-144.84761459 96.87423213 -142.14147155 94.4290979 -139.4375 91.9375 C-135.33803423 88.1733925 -131.14920719 84.61680628 -126.7734375 81.1796875 C-124.70348207 79.55287746 -122.64817315 77.91351029 -120.6015625 76.2578125 C-100.61041028 60.10189332 -79.69293805 45.31488238 -58.3125 31.0625 C-57.53373505 30.54285675 -56.75497009 30.0232135 -55.9526062 29.48782349 C-44.23952852 21.68484212 -32.4485434 14.12269389 -20.17285156 7.22509766 C-18.08907564 6.05022265 -16.02416823 4.84720912 -13.9609375 3.63671875 C-12.78736249 2.96456471 -11.61296011 2.29385192 -10.4375 1.625 C-9.48746094 1.08101563 -8.53742188 0.53703125 -7.55859375 -0.0234375 C-4.39790861 -1.22980587 -3.17403744 -1.14457714 0 0 Z " fill="#FEFEFE" transform="translate(687,110)"/>
<path d="M0 0 C24.75 0 49.5 0 75 0 C73.68 4.95 72.36 9.9 71 15 C68.74656607 26.77164524 68.71220887 38.58069628 68.74121094 50.52294922 C68.73849363 52.4271152 68.73492859 54.33128013 68.73059082 56.23544312 C68.72155118 61.35953446 68.72497628 66.48354435 68.73134899 71.60763693 C68.73645447 77.0017018 68.73170487 82.39576025 68.72857666 87.78982544 C68.72494954 96.84606157 68.72970241 105.90226495 68.73925781 114.95849609 C68.75013333 125.38538995 68.74661824 135.81220552 68.735605 146.23909748 C68.72648836 155.23496281 68.72526833 164.23080477 68.73048234 173.22667325 C68.73357894 178.58029595 68.73407582 183.93388203 68.72740936 189.28750229 C68.72157268 194.3257292 68.72574668 199.36385659 68.73719788 204.40207291 C68.73981131 206.23606451 68.73913728 208.0700647 68.73467255 209.90405273 C68.70217305 224.62723442 68.87976238 239.6943084 73.4140625 253.8359375 C74 256 74 256 74 260 C49.25 260 24.5 260 -1 260 C0.32 254.72 1.64 249.44 3 244 C5.04116114 232.76710839 5.29186023 221.92041705 5.2746582 210.55224609 C5.27901496 208.63191532 5.28420129 206.71158628 5.29014587 204.79125977 C5.30344641 199.61320525 5.30412436 194.43522414 5.30158257 189.2571559 C5.30050632 184.91397896 5.30541307 180.57081647 5.310188 176.22764266 C5.32125322 165.96766856 5.32173806 155.70773107 5.31567383 145.44775391 C5.30964221 134.91298902 5.32193135 124.37835796 5.3432439 113.84361589 C5.36094317 104.7560388 5.36684803 95.66850398 5.36360615 86.58091033 C5.36180568 81.17239654 5.36430412 75.76397815 5.37832069 70.35548019 C5.39103006 65.2614279 5.38883302 60.16758177 5.37590981 55.0735321 C5.37357234 53.22102916 5.37617482 51.36851111 5.38453293 49.51602554 C5.43797826 36.73234619 4.18297164 24.5902261 2 12 C1.34 8.04 0.68 4.08 0 0 Z " fill="#1902AD" transform="translate(375,441)"/>
<path d="M0 0 C24.75 0 49.5 0 75 0 C73.60364276 7.6799648 72.17127551 15.34586601 70.68359375 23.0078125 C68.85808966 33.33875994 68.85130785 43.54149392 68.85473633 53.99389648 C68.85174065 55.81821257 68.84833718 57.64252802 68.84455872 59.46684265 C68.83575281 64.40538073 68.83338195 69.34390145 68.83274293 74.28244662 C68.83203011 77.37603925 68.82989133 80.46962753 68.82724571 83.56321907 C68.81800121 94.3796326 68.81390941 105.19603383 68.81469727 116.01245117 C68.81529674 126.05463355 68.80476825 136.09676199 68.7889536 146.13893074 C68.77581994 154.79070454 68.77051585 163.44246086 68.77115268 172.09424454 C68.7714061 177.24788662 68.76864214 182.40148079 68.75797462 187.55511284 C68.74819594 192.41184855 68.74828041 197.26849155 68.75549126 202.12523079 C68.75652532 203.89310468 68.75424572 205.66098465 68.7481308 207.42884827 C68.68908215 225.70604924 70.97176085 241.87292382 75 260 C50.25 260 25.5 260 0 260 C0.64122801 255.51140391 1.28804009 251.71968483 2.4375 247.4375 C7.47308325 225.33718761 6.2991912 202.16428126 6.26865101 179.6439383 C6.26351735 174.66144241 6.26830237 169.67895316 6.27142334 164.69645691 C6.27504083 156.33937231 6.27032154 147.98232331 6.26074219 139.62524414 C6.24985123 130.01394422 6.2533969 120.40272914 6.264395 110.79143125 C6.27351871 102.47992416 6.27472878 94.16844235 6.26951766 85.85693187 C6.26642711 80.91863822 6.26590734 75.98038425 6.27259064 71.04209328 C6.27843856 66.39857389 6.27423364 61.75516223 6.26280212 57.11165428 C6.26019527 55.42482048 6.26085087 53.73797734 6.26532745 52.05114746 C6.28646722 43.26420944 6.00409104 34.58931688 5.11663818 25.84281921 C5.00200206 24.6910421 5.00200206 24.6910421 4.88505006 23.51599675 C4.19426649 17.33428746 2.71895475 11.61194754 0.8046875 5.6875 C0 3 0 3 0 0 Z " fill="#1800AD" transform="translate(498,441)"/>
<path d="M0 0 C24.75 0 49.5 0 75 0 C73.68 5.28 72.36 10.56 71 16 C67.91531232 29.47521461 67.84998362 42.9905771 67.85473633 56.74194336 C67.85173732 58.49139476 67.84833311 60.24084551 67.84455872 61.99029541 C67.8357872 66.70779803 67.83338343 71.42528247 67.83274293 76.14279246 C67.83202821 79.10243015 67.82988591 82.06206334 67.82724571 85.02169991 C67.81801299 95.38238947 67.81390798 105.74306623 67.81469727 116.10375977 C67.8152966 125.70287803 67.8047677 135.30193983 67.7889536 144.90104383 C67.77579551 153.18863272 67.77051685 161.47620336 67.77115268 169.76380259 C67.77140536 174.69283035 67.76868317 179.62180793 67.75797462 184.55082512 C67.03017415 219.76037469 67.03017415 219.76037469 73.1953125 254.19921875 C74 257 74 257 74 260 C49.25 260 24.5 260 -1 260 C0.37524717 253.81138773 1.79981765 247.65669833 3.31640625 241.50390625 C5.3900117 230.87519716 5.14869734 220.13967222 5.14526367 209.35766602 C5.14825985 207.47571242 5.15166343 205.59375944 5.15544128 203.71180725 C5.16424182 198.62037366 5.16661782 193.52895691 5.16725707 188.43751645 C5.16797016 185.2475926 5.17010944 182.05767297 5.17275429 178.86775017 C5.1819968 167.71301886 5.18609081 156.55829946 5.18530273 145.40356445 C5.18470322 135.04952935 5.19523305 124.69554655 5.2110464 114.34152466 C5.22418202 105.41880443 5.22948407 96.49610116 5.22884732 87.57337135 C5.22859397 82.25930466 5.231354 76.94528444 5.24202538 71.63122749 C5.2518075 66.62345356 5.25171731 61.61576954 5.24450874 56.60799217 C5.24347512 54.78571057 5.24575155 52.96342306 5.2518692 51.14115143 C5.29892486 36.1339504 5.25624699 20.53288056 0.5859375 6.12890625 C0 4 0 4 0 0 Z " fill="#1800AD" transform="translate(877,441)"/>
<path d="M0 0 C0.33 0 0.66 0 1 0 C1.09498779 0.60247559 1.18997559 1.20495117 1.2878418 1.82568359 C1.74380155 4.67725859 2.21568085 7.52600771 2.6875 10.375 C2.91083008 11.79425781 2.91083008 11.79425781 3.13867188 13.2421875 C6.39547041 32.6552611 13.2406476 51.33799178 19.3125 70 C20.56506475 73.8522297 21.81595674 77.70498552 23.06352234 81.55883789 C23.83413559 83.93915191 24.6074905 86.31858046 25.38386536 88.69702148 C25.72810043 89.75993408 26.07233551 90.82284668 26.42700195 91.91796875 C26.731689 92.85406982 27.03637604 93.7901709 27.35029602 94.75463867 C28 97 28 97 28 99 C10.18 99 -7.64 99 -26 99 C-25.27868809 93.22950469 -24.41711417 88.6026413 -22.5234375 83.2578125 C-22.01544058 81.77756979 -21.50763568 80.29726117 -21 78.81689453 C-20.73445312 78.05137268 -20.46890625 77.28585083 -20.1953125 76.49713135 C-12.82195724 55.1752971 -6.49195642 33.88549237 -2.82421875 11.58203125 C-2.15644782 7.61072444 -1.19159014 3.84534983 0 0 Z " fill="#FBFAFD" transform="translate(720,498)"/>
</svg>
